<mxfile host="app.diagrams.net" agent="Mozilla/5.0 (Macintosh; Intel Mac OS X 10_15_7) AppleWebKit/537.36 (KHTML, like Gecko) Chrome/133.0.0.0 Safari/537.36" version="26.1.0">
  <diagram name="Page-1" id="bfe91b75-5d2c-26a0-9c1d-138518896778">
    <mxGraphModel dx="-1460" dy="1860" grid="1" gridSize="10" guides="1" tooltips="1" connect="1" arrows="1" fold="1" page="1" pageScale="1" pageWidth="1100" pageHeight="850" background="none" math="0" shadow="0">
      <root>
        <mxCell id="0" />
        <mxCell id="1" parent="0" />
        <mxCell id="zYjV9tUaryt6FU55qQ4A-226" value="" style="whiteSpace=wrap;html=1;fontFamily=Helvetica;fontSize=11;labelBackgroundColor=default;fillColor=#f8cecc;strokeColor=#b85450;" parent="1" vertex="1">
          <mxGeometry x="3340" y="-100" width="600" height="200" as="geometry" />
        </mxCell>
        <mxCell id="zYjV9tUaryt6FU55qQ4A-227" value="" style="whiteSpace=wrap;html=1;fontFamily=Helvetica;fontSize=11;labelBackgroundColor=default;fillColor=#ffe6cc;strokeColor=#d79b00;" parent="1" vertex="1">
          <mxGeometry x="3340" y="-290" width="600" height="190" as="geometry" />
        </mxCell>
        <mxCell id="zYjV9tUaryt6FU55qQ4A-228" value="" style="whiteSpace=wrap;html=1;fontFamily=Helvetica;fontSize=11;labelBackgroundColor=default;fillColor=#fff2cc;strokeColor=#d6b656;" parent="1" vertex="1">
          <mxGeometry x="3340" y="-480" width="600" height="190" as="geometry" />
        </mxCell>
        <mxCell id="zYjV9tUaryt6FU55qQ4A-225" value="" style="whiteSpace=wrap;html=1;fontFamily=Helvetica;fontSize=11;labelBackgroundColor=default;fillColor=#dae8fc;strokeColor=#6c8ebf;" parent="1" vertex="1">
          <mxGeometry x="3340" y="-840" width="600" height="360" as="geometry" />
        </mxCell>
        <mxCell id="zYjV9tUaryt6FU55qQ4A-224" value="" style="whiteSpace=wrap;html=1;fontFamily=Helvetica;fontSize=11;labelBackgroundColor=default;fillColor=#d5e8d4;strokeColor=#82b366;gradientColor=none;fillStyle=auto;glass=0;shadow=0;" parent="1" vertex="1">
          <mxGeometry x="3940" y="-840" width="420" height="940" as="geometry" />
        </mxCell>
        <mxCell id="zYjV9tUaryt6FU55qQ4A-109" style="edgeStyle=orthogonalEdgeStyle;shape=connector;rounded=0;orthogonalLoop=1;jettySize=auto;html=1;strokeColor=default;strokeWidth=2;align=center;verticalAlign=middle;fontFamily=Helvetica;fontSize=11;fontColor=default;labelBackgroundColor=default;endArrow=none;endFill=0;entryX=1;entryY=0.5;entryDx=0;entryDy=0;entryPerimeter=0;" parent="1" source="zYjV9tUaryt6FU55qQ4A-96" target="zYjV9tUaryt6FU55qQ4A-102" edge="1">
          <mxGeometry relative="1" as="geometry" />
        </mxCell>
        <mxCell id="zYjV9tUaryt6FU55qQ4A-242" style="shape=connector;rounded=0;orthogonalLoop=1;jettySize=auto;html=1;strokeColor=default;strokeWidth=2;align=center;verticalAlign=middle;fontFamily=Helvetica;fontSize=11;fontColor=default;labelBackgroundColor=default;endArrow=none;endFill=0;" parent="1" source="zYjV9tUaryt6FU55qQ4A-96" target="zYjV9tUaryt6FU55qQ4A-241" edge="1">
          <mxGeometry relative="1" as="geometry" />
        </mxCell>
        <mxCell id="zYjV9tUaryt6FU55qQ4A-96" value="" style="fontColor=#0066CC;verticalAlign=top;verticalLabelPosition=bottom;labelPosition=center;align=center;html=1;outlineConnect=0;fillColor=#CCCCCC;strokeColor=#6881B3;gradientColor=none;gradientDirection=north;strokeWidth=2;shape=mxgraph.networks.switch;" parent="1" vertex="1">
          <mxGeometry x="4200" y="-302" width="100" height="30" as="geometry" />
        </mxCell>
        <mxCell id="zYjV9tUaryt6FU55qQ4A-98" value="" style="fontColor=#0066CC;verticalAlign=top;verticalLabelPosition=bottom;labelPosition=center;align=center;html=1;outlineConnect=0;fillColor=#CCCCCC;strokeColor=#6881B3;gradientColor=none;gradientDirection=north;strokeWidth=2;shape=mxgraph.networks.router;" parent="1" vertex="1">
          <mxGeometry x="4000" y="10" width="100" height="30" as="geometry" />
        </mxCell>
        <mxCell id="zYjV9tUaryt6FU55qQ4A-99" value="" style="fontColor=#0066CC;verticalAlign=top;verticalLabelPosition=bottom;labelPosition=center;align=center;html=1;outlineConnect=0;fillColor=#CCCCCC;strokeColor=#6881B3;gradientColor=none;gradientDirection=north;strokeWidth=2;shape=mxgraph.networks.router;" parent="1" vertex="1">
          <mxGeometry x="4000" y="-50" width="100" height="30" as="geometry" />
        </mxCell>
        <mxCell id="zYjV9tUaryt6FU55qQ4A-100" value="" style="fontColor=#0066CC;verticalAlign=top;verticalLabelPosition=bottom;labelPosition=center;align=center;html=1;outlineConnect=0;fillColor=#CCCCCC;strokeColor=#6881B3;gradientColor=none;gradientDirection=north;strokeWidth=2;shape=mxgraph.networks.router;" parent="1" vertex="1">
          <mxGeometry x="4000" y="-180" width="100" height="30" as="geometry" />
        </mxCell>
        <mxCell id="zYjV9tUaryt6FU55qQ4A-101" value="" style="fontColor=#0066CC;verticalAlign=top;verticalLabelPosition=bottom;labelPosition=center;align=center;html=1;outlineConnect=0;fillColor=#CCCCCC;strokeColor=#6881B3;gradientColor=none;gradientDirection=north;strokeWidth=2;shape=mxgraph.networks.router;" parent="1" vertex="1">
          <mxGeometry x="4000" y="-240" width="100" height="30" as="geometry" />
        </mxCell>
        <mxCell id="zYjV9tUaryt6FU55qQ4A-102" value="" style="fontColor=#0066CC;verticalAlign=top;verticalLabelPosition=bottom;labelPosition=center;align=center;html=1;outlineConnect=0;fillColor=#CCCCCC;strokeColor=#6881B3;gradientColor=none;gradientDirection=north;strokeWidth=2;shape=mxgraph.networks.router;" parent="1" vertex="1">
          <mxGeometry x="4000" y="-365" width="100" height="30" as="geometry" />
        </mxCell>
        <mxCell id="zYjV9tUaryt6FU55qQ4A-103" value="" style="fontColor=#0066CC;verticalAlign=top;verticalLabelPosition=bottom;labelPosition=center;align=center;html=1;outlineConnect=0;fillColor=#CCCCCC;strokeColor=#6881B3;gradientColor=none;gradientDirection=north;strokeWidth=2;shape=mxgraph.networks.router;" parent="1" vertex="1">
          <mxGeometry x="4000" y="-425" width="100" height="30" as="geometry" />
        </mxCell>
        <mxCell id="zYjV9tUaryt6FU55qQ4A-104" value="" style="fontColor=#0066CC;verticalAlign=top;verticalLabelPosition=bottom;labelPosition=center;align=center;html=1;outlineConnect=0;fillColor=#CCCCCC;strokeColor=#6881B3;gradientColor=none;gradientDirection=north;strokeWidth=2;shape=mxgraph.networks.router;" parent="1" vertex="1">
          <mxGeometry x="4000" y="-640" width="100" height="30" as="geometry" />
        </mxCell>
        <mxCell id="zYjV9tUaryt6FU55qQ4A-105" value="" style="fontColor=#0066CC;verticalAlign=top;verticalLabelPosition=bottom;labelPosition=center;align=center;html=1;outlineConnect=0;fillColor=#CCCCCC;strokeColor=#6881B3;gradientColor=none;gradientDirection=north;strokeWidth=2;shape=mxgraph.networks.router;" parent="1" vertex="1">
          <mxGeometry x="4000" y="-700" width="100" height="30" as="geometry" />
        </mxCell>
        <mxCell id="zYjV9tUaryt6FU55qQ4A-106" style="edgeStyle=orthogonalEdgeStyle;rounded=0;orthogonalLoop=1;jettySize=auto;html=1;entryX=1;entryY=0.5;entryDx=0;entryDy=0;entryPerimeter=0;endArrow=none;endFill=0;strokeWidth=2;" parent="1" source="zYjV9tUaryt6FU55qQ4A-96" target="zYjV9tUaryt6FU55qQ4A-105" edge="1">
          <mxGeometry relative="1" as="geometry" />
        </mxCell>
        <mxCell id="zYjV9tUaryt6FU55qQ4A-107" style="edgeStyle=orthogonalEdgeStyle;shape=connector;rounded=0;orthogonalLoop=1;jettySize=auto;html=1;entryX=1;entryY=0.5;entryDx=0;entryDy=0;entryPerimeter=0;strokeColor=default;strokeWidth=2;align=center;verticalAlign=middle;fontFamily=Helvetica;fontSize=11;fontColor=default;labelBackgroundColor=default;endArrow=none;endFill=0;" parent="1" source="zYjV9tUaryt6FU55qQ4A-96" target="zYjV9tUaryt6FU55qQ4A-104" edge="1">
          <mxGeometry relative="1" as="geometry" />
        </mxCell>
        <mxCell id="zYjV9tUaryt6FU55qQ4A-108" style="edgeStyle=orthogonalEdgeStyle;shape=connector;rounded=0;orthogonalLoop=1;jettySize=auto;html=1;entryX=1;entryY=0.5;entryDx=0;entryDy=0;entryPerimeter=0;strokeColor=default;strokeWidth=2;align=center;verticalAlign=middle;fontFamily=Helvetica;fontSize=11;fontColor=default;labelBackgroundColor=default;endArrow=none;endFill=0;" parent="1" source="zYjV9tUaryt6FU55qQ4A-96" target="zYjV9tUaryt6FU55qQ4A-103" edge="1">
          <mxGeometry relative="1" as="geometry" />
        </mxCell>
        <mxCell id="zYjV9tUaryt6FU55qQ4A-110" style="edgeStyle=orthogonalEdgeStyle;shape=connector;rounded=0;orthogonalLoop=1;jettySize=auto;html=1;entryX=1;entryY=0.5;entryDx=0;entryDy=0;entryPerimeter=0;strokeColor=default;strokeWidth=2;align=center;verticalAlign=middle;fontFamily=Helvetica;fontSize=11;fontColor=default;labelBackgroundColor=default;endArrow=none;endFill=0;" parent="1" source="zYjV9tUaryt6FU55qQ4A-96" target="zYjV9tUaryt6FU55qQ4A-101" edge="1">
          <mxGeometry relative="1" as="geometry" />
        </mxCell>
        <mxCell id="zYjV9tUaryt6FU55qQ4A-111" style="edgeStyle=orthogonalEdgeStyle;shape=connector;rounded=0;orthogonalLoop=1;jettySize=auto;html=1;entryX=1;entryY=0.5;entryDx=0;entryDy=0;entryPerimeter=0;strokeColor=default;strokeWidth=2;align=center;verticalAlign=middle;fontFamily=Helvetica;fontSize=11;fontColor=default;labelBackgroundColor=default;endArrow=none;endFill=0;" parent="1" source="zYjV9tUaryt6FU55qQ4A-96" target="zYjV9tUaryt6FU55qQ4A-100" edge="1">
          <mxGeometry relative="1" as="geometry" />
        </mxCell>
        <mxCell id="zYjV9tUaryt6FU55qQ4A-112" style="edgeStyle=orthogonalEdgeStyle;shape=connector;rounded=0;orthogonalLoop=1;jettySize=auto;html=1;entryX=1;entryY=0.5;entryDx=0;entryDy=0;entryPerimeter=0;strokeColor=default;strokeWidth=2;align=center;verticalAlign=middle;fontFamily=Helvetica;fontSize=11;fontColor=default;labelBackgroundColor=default;endArrow=none;endFill=0;" parent="1" source="zYjV9tUaryt6FU55qQ4A-96" target="zYjV9tUaryt6FU55qQ4A-99" edge="1">
          <mxGeometry relative="1" as="geometry" />
        </mxCell>
        <mxCell id="zYjV9tUaryt6FU55qQ4A-113" style="edgeStyle=orthogonalEdgeStyle;shape=connector;rounded=0;orthogonalLoop=1;jettySize=auto;html=1;entryX=1;entryY=0.5;entryDx=0;entryDy=0;entryPerimeter=0;strokeColor=default;strokeWidth=2;align=center;verticalAlign=middle;fontFamily=Helvetica;fontSize=11;fontColor=default;labelBackgroundColor=default;endArrow=none;endFill=0;" parent="1" source="zYjV9tUaryt6FU55qQ4A-96" target="zYjV9tUaryt6FU55qQ4A-98" edge="1">
          <mxGeometry relative="1" as="geometry" />
        </mxCell>
        <mxCell id="zYjV9tUaryt6FU55qQ4A-114" value="" style="fontColor=#0066CC;verticalAlign=top;verticalLabelPosition=bottom;labelPosition=center;align=center;html=1;outlineConnect=0;fillColor=#CCCCCC;strokeColor=#6881B3;gradientColor=none;gradientDirection=north;strokeWidth=2;shape=mxgraph.networks.switch;" parent="1" vertex="1">
          <mxGeometry x="3720" y="-400" width="100" height="30" as="geometry" />
        </mxCell>
        <mxCell id="zYjV9tUaryt6FU55qQ4A-115" value="" style="fontColor=#0066CC;verticalAlign=top;verticalLabelPosition=bottom;labelPosition=center;align=center;html=1;outlineConnect=0;fillColor=#CCCCCC;strokeColor=#6881B3;gradientColor=none;gradientDirection=north;strokeWidth=2;shape=mxgraph.networks.switch;" parent="1" vertex="1">
          <mxGeometry x="3720" y="-670" width="100" height="30" as="geometry" />
        </mxCell>
        <mxCell id="zYjV9tUaryt6FU55qQ4A-116" value="" style="fontColor=#0066CC;verticalAlign=top;verticalLabelPosition=bottom;labelPosition=center;align=center;html=1;outlineConnect=0;fillColor=#CCCCCC;strokeColor=#6881B3;gradientColor=none;gradientDirection=north;strokeWidth=2;shape=mxgraph.networks.switch;" parent="1" vertex="1">
          <mxGeometry x="3720" y="-210" width="100" height="30" as="geometry" />
        </mxCell>
        <mxCell id="zYjV9tUaryt6FU55qQ4A-117" value="" style="fontColor=#0066CC;verticalAlign=top;verticalLabelPosition=bottom;labelPosition=center;align=center;html=1;outlineConnect=0;fillColor=#CCCCCC;strokeColor=#6881B3;gradientColor=none;gradientDirection=north;strokeWidth=2;shape=mxgraph.networks.switch;" parent="1" vertex="1">
          <mxGeometry x="3720" y="-20" width="100" height="30" as="geometry" />
        </mxCell>
        <mxCell id="zYjV9tUaryt6FU55qQ4A-118" value="" style="fontColor=#0066CC;verticalAlign=top;verticalLabelPosition=bottom;labelPosition=center;align=center;html=1;fillColor=#CCCCCC;strokeColor=#6881B3;gradientColor=none;gradientDirection=north;strokeWidth=2;shape=mxgraph.networks.firewall;rounded=0;shadow=0;comic=0;" parent="1" vertex="1">
          <mxGeometry x="3860" y="-720" width="60" height="60" as="geometry" />
        </mxCell>
        <mxCell id="zYjV9tUaryt6FU55qQ4A-119" value="" style="fontColor=#0066CC;verticalAlign=top;verticalLabelPosition=bottom;labelPosition=center;align=center;html=1;fillColor=#CCCCCC;strokeColor=#6881B3;gradientColor=none;gradientDirection=north;strokeWidth=2;shape=mxgraph.networks.firewall;rounded=0;shadow=0;comic=0;" parent="1" vertex="1">
          <mxGeometry x="3860" y="-650" width="60" height="60" as="geometry" />
        </mxCell>
        <mxCell id="zYjV9tUaryt6FU55qQ4A-120" value="" style="fontColor=#0066CC;verticalAlign=top;verticalLabelPosition=bottom;labelPosition=center;align=center;html=1;fillColor=#CCCCCC;strokeColor=#6881B3;gradientColor=none;gradientDirection=north;strokeWidth=2;shape=mxgraph.networks.firewall;rounded=0;shadow=0;comic=0;" parent="1" vertex="1">
          <mxGeometry x="3860" y="-445" width="60" height="60" as="geometry" />
        </mxCell>
        <mxCell id="zYjV9tUaryt6FU55qQ4A-121" value="" style="fontColor=#0066CC;verticalAlign=top;verticalLabelPosition=bottom;labelPosition=center;align=center;html=1;fillColor=#CCCCCC;strokeColor=#6881B3;gradientColor=none;gradientDirection=north;strokeWidth=2;shape=mxgraph.networks.firewall;rounded=0;shadow=0;comic=0;" parent="1" vertex="1">
          <mxGeometry x="3860" y="-375" width="60" height="60" as="geometry" />
        </mxCell>
        <mxCell id="zYjV9tUaryt6FU55qQ4A-219" style="edgeStyle=orthogonalEdgeStyle;shape=connector;rounded=0;orthogonalLoop=1;jettySize=auto;html=1;strokeColor=default;strokeWidth=2;align=center;verticalAlign=middle;fontFamily=Helvetica;fontSize=11;fontColor=default;labelBackgroundColor=default;endArrow=none;endFill=0;entryX=0;entryY=0.5;entryDx=0;entryDy=0;entryPerimeter=0;" parent="1" source="zYjV9tUaryt6FU55qQ4A-122" target="zYjV9tUaryt6FU55qQ4A-100" edge="1">
          <mxGeometry relative="1" as="geometry" />
        </mxCell>
        <mxCell id="zYjV9tUaryt6FU55qQ4A-122" value="" style="fontColor=#0066CC;verticalAlign=top;verticalLabelPosition=bottom;labelPosition=center;align=center;html=1;fillColor=#CCCCCC;strokeColor=#6881B3;gradientColor=none;gradientDirection=north;strokeWidth=2;shape=mxgraph.networks.firewall;rounded=0;shadow=0;comic=0;" parent="1" vertex="1">
          <mxGeometry x="3860" y="-260" width="60" height="60" as="geometry" />
        </mxCell>
        <mxCell id="zYjV9tUaryt6FU55qQ4A-123" value="" style="fontColor=#0066CC;verticalAlign=top;verticalLabelPosition=bottom;labelPosition=center;align=center;html=1;fillColor=#CCCCCC;strokeColor=#6881B3;gradientColor=none;gradientDirection=north;strokeWidth=2;shape=mxgraph.networks.firewall;rounded=0;shadow=0;comic=0;" parent="1" vertex="1">
          <mxGeometry x="3860" y="-190" width="60" height="60" as="geometry" />
        </mxCell>
        <mxCell id="zYjV9tUaryt6FU55qQ4A-124" value="" style="fontColor=#0066CC;verticalAlign=top;verticalLabelPosition=bottom;labelPosition=center;align=center;html=1;fillColor=#CCCCCC;strokeColor=#6881B3;gradientColor=none;gradientDirection=north;strokeWidth=2;shape=mxgraph.networks.firewall;rounded=0;shadow=0;comic=0;" parent="1" vertex="1">
          <mxGeometry x="3860" y="-70" width="60" height="60" as="geometry" />
        </mxCell>
        <mxCell id="zYjV9tUaryt6FU55qQ4A-125" value="" style="fontColor=#0066CC;verticalAlign=top;verticalLabelPosition=bottom;labelPosition=center;align=center;html=1;fillColor=#CCCCCC;strokeColor=#6881B3;gradientColor=none;gradientDirection=north;strokeWidth=2;shape=mxgraph.networks.firewall;rounded=0;shadow=0;comic=0;" parent="1" vertex="1">
          <mxGeometry x="3860" width="60" height="60" as="geometry" />
        </mxCell>
        <mxCell id="zYjV9tUaryt6FU55qQ4A-146" value="" style="rounded=1;whiteSpace=wrap;html=1;shadow=0;comic=0;strokeColor=#000000;strokeWidth=2;fillColor=none;fontFamily=Verdana;fontSize=28;fontColor=#6881B3;align=center;arcSize=11;verticalAlign=top;" parent="1" vertex="1">
          <mxGeometry x="3360" y="-460" width="320" height="150" as="geometry" />
        </mxCell>
        <mxCell id="zYjV9tUaryt6FU55qQ4A-147" value="" style="rounded=1;whiteSpace=wrap;html=1;shadow=0;comic=0;strokeColor=#000000;strokeWidth=2;fillColor=none;fontFamily=Verdana;fontSize=28;fontColor=#6881B3;align=center;arcSize=11;verticalAlign=top;" parent="1" vertex="1">
          <mxGeometry x="3360" y="-805" width="320" height="300" as="geometry" />
        </mxCell>
        <mxCell id="zYjV9tUaryt6FU55qQ4A-153" value="VLAN 60 : Invités : 10.1.60.0/24" style="rounded=0;whiteSpace=wrap;html=1;fontFamily=Helvetica;fontSize=11;fontColor=default;labelBackgroundColor=default;align=left;spacingLeft=4;" parent="1" vertex="1">
          <mxGeometry x="3369" y="-635" width="300" height="20" as="geometry" />
        </mxCell>
        <mxCell id="zYjV9tUaryt6FU55qQ4A-155" value="VLAN 50 :&amp;nbsp;DSI : 10.1.50.0/24" style="rounded=0;whiteSpace=wrap;html=1;fontFamily=Helvetica;fontSize=11;fontColor=default;labelBackgroundColor=default;align=left;spacingLeft=4;" parent="1" vertex="1">
          <mxGeometry x="3369" y="-665" width="300" height="20" as="geometry" />
        </mxCell>
        <mxCell id="zYjV9tUaryt6FU55qQ4A-156" value="VLAN 40 :&amp;nbsp;RH : 10.1.40.0/24" style="rounded=0;whiteSpace=wrap;html=1;fontFamily=Helvetica;fontSize=11;fontColor=default;labelBackgroundColor=default;align=left;spacingLeft=4;" parent="1" vertex="1">
          <mxGeometry x="3369" y="-695" width="300" height="20" as="geometry" />
        </mxCell>
        <mxCell id="zYjV9tUaryt6FU55qQ4A-157" value="VLAN 30 :&amp;nbsp;Commercial : 10.1.30.0/24" style="rounded=0;whiteSpace=wrap;html=1;fontFamily=Helvetica;fontSize=11;fontColor=default;labelBackgroundColor=default;align=left;spacingLeft=4;" parent="1" vertex="1">
          <mxGeometry x="3369" y="-725" width="300" height="20" as="geometry" />
        </mxCell>
        <mxCell id="zYjV9tUaryt6FU55qQ4A-158" value="VLAN 20 :&amp;nbsp;Marketing : 10.1.20.0/24" style="rounded=0;whiteSpace=wrap;html=1;fontFamily=Helvetica;fontSize=11;fontColor=default;labelBackgroundColor=default;align=left;spacingLeft=4;" parent="1" vertex="1">
          <mxGeometry x="3369" y="-755" width="300" height="20" as="geometry" />
        </mxCell>
        <mxCell id="zYjV9tUaryt6FU55qQ4A-159" value="VLAN 10 : Direction : 10.1.10.0/24" style="rounded=0;whiteSpace=wrap;html=1;fontFamily=Helvetica;fontSize=11;fontColor=default;labelBackgroundColor=default;align=left;spacingLeft=4;" parent="1" vertex="1">
          <mxGeometry x="3369" y="-785" width="300" height="20" as="geometry" />
        </mxCell>
        <mxCell id="zYjV9tUaryt6FU55qQ4A-160" value="VLAN 90 :&amp;nbsp;Supervision (GLPI, zabbix) : 10.1.90.0/24" style="rounded=0;whiteSpace=wrap;html=1;fontFamily=Helvetica;fontSize=11;fontColor=default;labelBackgroundColor=default;align=left;spacingLeft=4;" parent="1" vertex="1">
          <mxGeometry x="3369" y="-546" width="300" height="20" as="geometry" />
        </mxCell>
        <mxCell id="zYjV9tUaryt6FU55qQ4A-161" value="VLAN 80 :&amp;nbsp;DMZ (mail, web, proxy reverse) : 10.1.80.0/24" style="rounded=0;whiteSpace=wrap;html=1;fontFamily=Helvetica;fontSize=11;fontColor=default;labelBackgroundColor=default;align=left;spacingLeft=4;" parent="1" vertex="1">
          <mxGeometry x="3369" y="-576" width="300" height="20" as="geometry" />
        </mxCell>
        <mxCell id="zYjV9tUaryt6FU55qQ4A-170" value="VLAN 70 :&amp;nbsp;Intern (AD, data) : 10.1.70.0/24" style="rounded=0;whiteSpace=wrap;html=1;fontFamily=Helvetica;fontSize=11;fontColor=default;labelBackgroundColor=default;align=left;spacingLeft=4;" parent="1" vertex="1">
          <mxGeometry x="3369" y="-606" width="300" height="20" as="geometry" />
        </mxCell>
        <mxCell id="zYjV9tUaryt6FU55qQ4A-173" value="VLAN 10 : Direction : 10.2.10.0/24" style="rounded=0;whiteSpace=wrap;html=1;fontFamily=Helvetica;fontSize=11;fontColor=default;labelBackgroundColor=default;align=left;spacingLeft=4;" parent="1" vertex="1">
          <mxGeometry x="3370" y="-435" width="300" height="20" as="geometry" />
        </mxCell>
        <mxCell id="zYjV9tUaryt6FU55qQ4A-177" value="VLAN 20 : DSI : 10.2.20.0/24" style="rounded=0;whiteSpace=wrap;html=1;fontFamily=Helvetica;fontSize=11;fontColor=default;labelBackgroundColor=default;align=left;spacingLeft=4;" parent="1" vertex="1">
          <mxGeometry x="3370" y="-405" width="300" height="20" as="geometry" />
        </mxCell>
        <mxCell id="zYjV9tUaryt6FU55qQ4A-183" value="&lt;font style=&quot;font-size: 12px;&quot;&gt;Internet&lt;/font&gt;" style="html=1;fillColor=#CCCCCC;strokeColor=#6881B3;gradientColor=none;gradientDirection=north;strokeWidth=2;shape=mxgraph.networks.cloud;fontColor=#6881B3;rounded=0;shadow=0;comic=0;align=center;fontSize=28;" parent="1" vertex="1">
          <mxGeometry x="4237" y="-458" width="106" height="46" as="geometry" />
        </mxCell>
        <mxCell id="zYjV9tUaryt6FU55qQ4A-191" value="VLAN 60 : Invités : 10.2.60.0/24" style="rounded=0;whiteSpace=wrap;html=1;fontFamily=Helvetica;fontSize=11;fontColor=default;labelBackgroundColor=default;align=left;spacingLeft=4;" parent="1" vertex="1">
          <mxGeometry x="3370" y="-378" width="300" height="20" as="geometry" />
        </mxCell>
        <mxCell id="zYjV9tUaryt6FU55qQ4A-192" value="VLAN 80 : DMZ (mail back-up) : 10.2.80.0/24" style="rounded=0;whiteSpace=wrap;html=1;fontFamily=Helvetica;fontSize=11;fontColor=default;labelBackgroundColor=default;align=left;spacingLeft=4;" parent="1" vertex="1">
          <mxGeometry x="3370" y="-348" width="300" height="20" as="geometry" />
        </mxCell>
        <mxCell id="zYjV9tUaryt6FU55qQ4A-206" style="edgeStyle=orthogonalEdgeStyle;shape=connector;rounded=0;orthogonalLoop=1;jettySize=auto;html=1;exitX=1;exitY=0.5;exitDx=0;exitDy=0;strokeColor=default;strokeWidth=2;align=center;verticalAlign=middle;fontFamily=Helvetica;fontSize=11;fontColor=default;labelBackgroundColor=default;endArrow=none;endFill=0;" parent="1" source="zYjV9tUaryt6FU55qQ4A-193" target="zYjV9tUaryt6FU55qQ4A-116" edge="1">
          <mxGeometry relative="1" as="geometry" />
        </mxCell>
        <mxCell id="zYjV9tUaryt6FU55qQ4A-193" value="" style="rounded=1;whiteSpace=wrap;html=1;shadow=0;comic=0;strokeColor=#000000;strokeWidth=2;fillColor=none;fontFamily=Verdana;fontSize=28;fontColor=#6881B3;align=center;arcSize=11;verticalAlign=top;" parent="1" vertex="1">
          <mxGeometry x="3359" y="-270" width="320" height="150" as="geometry" />
        </mxCell>
        <mxCell id="zYjV9tUaryt6FU55qQ4A-194" value="VLAN 10 : Direction : 10.3.10.0/24" style="rounded=0;whiteSpace=wrap;html=1;fontFamily=Helvetica;fontSize=11;fontColor=default;labelBackgroundColor=default;align=left;spacingLeft=4;" parent="1" vertex="1">
          <mxGeometry x="3369" y="-245" width="300" height="20" as="geometry" />
        </mxCell>
        <mxCell id="zYjV9tUaryt6FU55qQ4A-195" value="VLAN 20 : DSI : 10.3.2&lt;span style=&quot;background-color: light-dark(#ffffff, var(--ge-dark-color, #121212)); color: light-dark(rgb(0, 0, 0), rgb(255, 255, 255));&quot;&gt;0.0/24&lt;/span&gt;" style="rounded=0;whiteSpace=wrap;html=1;fontFamily=Helvetica;fontSize=11;fontColor=default;labelBackgroundColor=default;align=left;spacingLeft=4;" parent="1" vertex="1">
          <mxGeometry x="3369" y="-215" width="300" height="20" as="geometry" />
        </mxCell>
        <mxCell id="zYjV9tUaryt6FU55qQ4A-196" value="VLAN 60 : Invités : 10.3.60.0/24" style="rounded=0;whiteSpace=wrap;html=1;fontFamily=Helvetica;fontSize=11;fontColor=default;labelBackgroundColor=default;align=left;spacingLeft=4;" parent="1" vertex="1">
          <mxGeometry x="3369" y="-188" width="300" height="20" as="geometry" />
        </mxCell>
        <mxCell id="zYjV9tUaryt6FU55qQ4A-197" value="VLAN 70 : Intern (DHCP, DNS, data back-up) : 10.3.70.0/24" style="rounded=0;whiteSpace=wrap;html=1;fontFamily=Helvetica;fontSize=11;fontColor=default;labelBackgroundColor=default;align=left;spacingLeft=4;" parent="1" vertex="1">
          <mxGeometry x="3369" y="-158" width="300" height="20" as="geometry" />
        </mxCell>
        <mxCell id="zYjV9tUaryt6FU55qQ4A-207" style="edgeStyle=orthogonalEdgeStyle;shape=connector;rounded=0;orthogonalLoop=1;jettySize=auto;html=1;exitX=1;exitY=0.5;exitDx=0;exitDy=0;strokeColor=default;strokeWidth=2;align=center;verticalAlign=middle;fontFamily=Helvetica;fontSize=11;fontColor=default;labelBackgroundColor=default;endArrow=none;endFill=0;" parent="1" source="zYjV9tUaryt6FU55qQ4A-198" target="zYjV9tUaryt6FU55qQ4A-117" edge="1">
          <mxGeometry relative="1" as="geometry" />
        </mxCell>
        <mxCell id="zYjV9tUaryt6FU55qQ4A-198" value="" style="rounded=1;whiteSpace=wrap;html=1;shadow=0;comic=0;strokeColor=#000000;strokeWidth=2;fillColor=none;fontFamily=Verdana;fontSize=28;fontColor=#6881B3;align=center;arcSize=11;verticalAlign=top;" parent="1" vertex="1">
          <mxGeometry x="3360" y="-80" width="320" height="150" as="geometry" />
        </mxCell>
        <mxCell id="zYjV9tUaryt6FU55qQ4A-199" value="VLAN 10 : Direction&amp;nbsp;&amp;nbsp;: 10.4.10.0/24" style="rounded=0;whiteSpace=wrap;html=1;fontFamily=Helvetica;fontSize=11;fontColor=default;labelBackgroundColor=default;align=left;spacingLeft=4;" parent="1" vertex="1">
          <mxGeometry x="3370" y="-55" width="300" height="20" as="geometry" />
        </mxCell>
        <mxCell id="zYjV9tUaryt6FU55qQ4A-200" value="VLAN 20 : DSI&amp;nbsp;&amp;nbsp;: 10.4.20.0/24" style="rounded=0;whiteSpace=wrap;html=1;fontFamily=Helvetica;fontSize=11;fontColor=default;labelBackgroundColor=default;align=left;spacingLeft=4;" parent="1" vertex="1">
          <mxGeometry x="3370" y="-25" width="300" height="20" as="geometry" />
        </mxCell>
        <mxCell id="zYjV9tUaryt6FU55qQ4A-201" value="VLAN 60 : Invités&amp;nbsp;&amp;nbsp;: 10.4.60.0/24" style="rounded=0;whiteSpace=wrap;html=1;fontFamily=Helvetica;fontSize=11;fontColor=default;labelBackgroundColor=default;align=left;spacingLeft=4;" parent="1" vertex="1">
          <mxGeometry x="3370" y="2" width="300" height="20" as="geometry" />
        </mxCell>
        <mxCell id="zYjV9tUaryt6FU55qQ4A-202" value="VLAN 70 : Intern (RODC, data direction) : 10.4.70.0/24" style="rounded=0;whiteSpace=wrap;html=1;fontFamily=Helvetica;fontSize=11;fontColor=default;labelBackgroundColor=default;align=left;spacingLeft=4;" parent="1" vertex="1">
          <mxGeometry x="3370" y="32" width="300" height="20" as="geometry" />
        </mxCell>
        <mxCell id="zYjV9tUaryt6FU55qQ4A-204" style="edgeStyle=orthogonalEdgeStyle;shape=connector;rounded=0;orthogonalLoop=1;jettySize=auto;html=1;entryX=0;entryY=0.5;entryDx=0;entryDy=0;entryPerimeter=0;strokeColor=default;strokeWidth=2;align=center;verticalAlign=middle;fontFamily=Helvetica;fontSize=11;fontColor=default;labelBackgroundColor=default;endArrow=none;endFill=0;" parent="1" source="zYjV9tUaryt6FU55qQ4A-147" target="zYjV9tUaryt6FU55qQ4A-115" edge="1">
          <mxGeometry relative="1" as="geometry" />
        </mxCell>
        <mxCell id="zYjV9tUaryt6FU55qQ4A-205" style="edgeStyle=orthogonalEdgeStyle;shape=connector;rounded=0;orthogonalLoop=1;jettySize=auto;html=1;entryX=0;entryY=0.5;entryDx=0;entryDy=0;entryPerimeter=0;strokeColor=default;strokeWidth=2;align=center;verticalAlign=middle;fontFamily=Helvetica;fontSize=11;fontColor=default;labelBackgroundColor=default;endArrow=none;endFill=0;" parent="1" source="zYjV9tUaryt6FU55qQ4A-146" target="zYjV9tUaryt6FU55qQ4A-114" edge="1">
          <mxGeometry relative="1" as="geometry" />
        </mxCell>
        <mxCell id="zYjV9tUaryt6FU55qQ4A-208" style="edgeStyle=orthogonalEdgeStyle;shape=connector;rounded=0;orthogonalLoop=1;jettySize=auto;html=1;entryX=0;entryY=0.5;entryDx=0;entryDy=0;entryPerimeter=0;strokeColor=default;strokeWidth=2;align=center;verticalAlign=middle;fontFamily=Helvetica;fontSize=11;fontColor=default;labelBackgroundColor=default;endArrow=none;endFill=0;" parent="1" source="zYjV9tUaryt6FU55qQ4A-115" target="zYjV9tUaryt6FU55qQ4A-118" edge="1">
          <mxGeometry relative="1" as="geometry" />
        </mxCell>
        <mxCell id="zYjV9tUaryt6FU55qQ4A-209" style="edgeStyle=orthogonalEdgeStyle;shape=connector;rounded=0;orthogonalLoop=1;jettySize=auto;html=1;entryX=0;entryY=0.5;entryDx=0;entryDy=0;entryPerimeter=0;strokeColor=default;strokeWidth=2;align=center;verticalAlign=middle;fontFamily=Helvetica;fontSize=11;fontColor=default;labelBackgroundColor=default;endArrow=none;endFill=0;" parent="1" source="zYjV9tUaryt6FU55qQ4A-115" target="zYjV9tUaryt6FU55qQ4A-119" edge="1">
          <mxGeometry relative="1" as="geometry" />
        </mxCell>
        <mxCell id="zYjV9tUaryt6FU55qQ4A-210" style="edgeStyle=orthogonalEdgeStyle;shape=connector;rounded=0;orthogonalLoop=1;jettySize=auto;html=1;exitX=1;exitY=0.5;exitDx=0;exitDy=0;exitPerimeter=0;entryX=0;entryY=0.5;entryDx=0;entryDy=0;entryPerimeter=0;strokeColor=default;strokeWidth=2;align=center;verticalAlign=middle;fontFamily=Helvetica;fontSize=11;fontColor=default;labelBackgroundColor=default;endArrow=none;endFill=0;" parent="1" source="zYjV9tUaryt6FU55qQ4A-118" target="zYjV9tUaryt6FU55qQ4A-104" edge="1">
          <mxGeometry relative="1" as="geometry" />
        </mxCell>
        <mxCell id="zYjV9tUaryt6FU55qQ4A-211" style="edgeStyle=orthogonalEdgeStyle;shape=connector;rounded=0;orthogonalLoop=1;jettySize=auto;html=1;entryX=0;entryY=0.5;entryDx=0;entryDy=0;entryPerimeter=0;strokeColor=default;strokeWidth=2;align=center;verticalAlign=middle;fontFamily=Helvetica;fontSize=11;fontColor=default;labelBackgroundColor=default;endArrow=none;endFill=0;" parent="1" source="zYjV9tUaryt6FU55qQ4A-119" target="zYjV9tUaryt6FU55qQ4A-105" edge="1">
          <mxGeometry relative="1" as="geometry" />
        </mxCell>
        <mxCell id="zYjV9tUaryt6FU55qQ4A-212" style="edgeStyle=orthogonalEdgeStyle;shape=connector;rounded=0;orthogonalLoop=1;jettySize=auto;html=1;entryX=0;entryY=0.5;entryDx=0;entryDy=0;entryPerimeter=0;strokeColor=default;strokeWidth=2;align=center;verticalAlign=middle;fontFamily=Helvetica;fontSize=11;fontColor=default;labelBackgroundColor=default;endArrow=none;endFill=0;" parent="1" source="zYjV9tUaryt6FU55qQ4A-114" target="zYjV9tUaryt6FU55qQ4A-120" edge="1">
          <mxGeometry relative="1" as="geometry" />
        </mxCell>
        <mxCell id="zYjV9tUaryt6FU55qQ4A-213" style="edgeStyle=orthogonalEdgeStyle;shape=connector;rounded=0;orthogonalLoop=1;jettySize=auto;html=1;entryX=0;entryY=0.5;entryDx=0;entryDy=0;entryPerimeter=0;strokeColor=default;strokeWidth=2;align=center;verticalAlign=middle;fontFamily=Helvetica;fontSize=11;fontColor=default;labelBackgroundColor=default;endArrow=none;endFill=0;" parent="1" source="zYjV9tUaryt6FU55qQ4A-114" target="zYjV9tUaryt6FU55qQ4A-121" edge="1">
          <mxGeometry relative="1" as="geometry" />
        </mxCell>
        <mxCell id="zYjV9tUaryt6FU55qQ4A-214" style="edgeStyle=orthogonalEdgeStyle;shape=connector;rounded=0;orthogonalLoop=1;jettySize=auto;html=1;entryX=0;entryY=0.5;entryDx=0;entryDy=0;entryPerimeter=0;strokeColor=default;strokeWidth=2;align=center;verticalAlign=middle;fontFamily=Helvetica;fontSize=11;fontColor=default;labelBackgroundColor=default;endArrow=none;endFill=0;" parent="1" source="zYjV9tUaryt6FU55qQ4A-120" target="zYjV9tUaryt6FU55qQ4A-102" edge="1">
          <mxGeometry relative="1" as="geometry" />
        </mxCell>
        <mxCell id="zYjV9tUaryt6FU55qQ4A-215" style="edgeStyle=orthogonalEdgeStyle;shape=connector;rounded=0;orthogonalLoop=1;jettySize=auto;html=1;entryX=0;entryY=0.5;entryDx=0;entryDy=0;entryPerimeter=0;strokeColor=default;strokeWidth=2;align=center;verticalAlign=middle;fontFamily=Helvetica;fontSize=11;fontColor=default;labelBackgroundColor=default;endArrow=none;endFill=0;" parent="1" source="zYjV9tUaryt6FU55qQ4A-121" target="zYjV9tUaryt6FU55qQ4A-103" edge="1">
          <mxGeometry relative="1" as="geometry" />
        </mxCell>
        <mxCell id="zYjV9tUaryt6FU55qQ4A-216" style="edgeStyle=orthogonalEdgeStyle;shape=connector;rounded=0;orthogonalLoop=1;jettySize=auto;html=1;entryX=0;entryY=0.5;entryDx=0;entryDy=0;entryPerimeter=0;strokeColor=default;strokeWidth=2;align=center;verticalAlign=middle;fontFamily=Helvetica;fontSize=11;fontColor=default;labelBackgroundColor=default;endArrow=none;endFill=0;" parent="1" source="zYjV9tUaryt6FU55qQ4A-116" target="zYjV9tUaryt6FU55qQ4A-122" edge="1">
          <mxGeometry relative="1" as="geometry" />
        </mxCell>
        <mxCell id="zYjV9tUaryt6FU55qQ4A-217" style="edgeStyle=orthogonalEdgeStyle;shape=connector;rounded=0;orthogonalLoop=1;jettySize=auto;html=1;entryX=0;entryY=0.5;entryDx=0;entryDy=0;entryPerimeter=0;strokeColor=default;strokeWidth=2;align=center;verticalAlign=middle;fontFamily=Helvetica;fontSize=11;fontColor=default;labelBackgroundColor=default;endArrow=none;endFill=0;" parent="1" source="zYjV9tUaryt6FU55qQ4A-116" target="zYjV9tUaryt6FU55qQ4A-123" edge="1">
          <mxGeometry relative="1" as="geometry" />
        </mxCell>
        <mxCell id="zYjV9tUaryt6FU55qQ4A-218" style="edgeStyle=orthogonalEdgeStyle;shape=connector;rounded=0;orthogonalLoop=1;jettySize=auto;html=1;entryX=0;entryY=0.5;entryDx=0;entryDy=0;entryPerimeter=0;strokeColor=default;strokeWidth=2;align=center;verticalAlign=middle;fontFamily=Helvetica;fontSize=11;fontColor=default;labelBackgroundColor=default;endArrow=none;endFill=0;" parent="1" source="zYjV9tUaryt6FU55qQ4A-123" target="zYjV9tUaryt6FU55qQ4A-101" edge="1">
          <mxGeometry relative="1" as="geometry" />
        </mxCell>
        <mxCell id="zYjV9tUaryt6FU55qQ4A-220" style="edgeStyle=orthogonalEdgeStyle;shape=connector;rounded=0;orthogonalLoop=1;jettySize=auto;html=1;entryX=0;entryY=0.5;entryDx=0;entryDy=0;entryPerimeter=0;strokeColor=default;strokeWidth=2;align=center;verticalAlign=middle;fontFamily=Helvetica;fontSize=11;fontColor=default;labelBackgroundColor=default;endArrow=none;endFill=0;" parent="1" source="zYjV9tUaryt6FU55qQ4A-117" target="zYjV9tUaryt6FU55qQ4A-124" edge="1">
          <mxGeometry relative="1" as="geometry" />
        </mxCell>
        <mxCell id="zYjV9tUaryt6FU55qQ4A-221" style="edgeStyle=orthogonalEdgeStyle;shape=connector;rounded=0;orthogonalLoop=1;jettySize=auto;html=1;entryX=0;entryY=0.5;entryDx=0;entryDy=0;entryPerimeter=0;strokeColor=default;strokeWidth=2;align=center;verticalAlign=middle;fontFamily=Helvetica;fontSize=11;fontColor=default;labelBackgroundColor=default;endArrow=none;endFill=0;" parent="1" source="zYjV9tUaryt6FU55qQ4A-117" target="zYjV9tUaryt6FU55qQ4A-125" edge="1">
          <mxGeometry relative="1" as="geometry" />
        </mxCell>
        <mxCell id="zYjV9tUaryt6FU55qQ4A-222" style="edgeStyle=orthogonalEdgeStyle;shape=connector;rounded=0;orthogonalLoop=1;jettySize=auto;html=1;entryX=0;entryY=0.5;entryDx=0;entryDy=0;entryPerimeter=0;strokeColor=default;strokeWidth=2;align=center;verticalAlign=middle;fontFamily=Helvetica;fontSize=11;fontColor=default;labelBackgroundColor=default;endArrow=none;endFill=0;" parent="1" source="zYjV9tUaryt6FU55qQ4A-125" target="zYjV9tUaryt6FU55qQ4A-99" edge="1">
          <mxGeometry relative="1" as="geometry" />
        </mxCell>
        <mxCell id="zYjV9tUaryt6FU55qQ4A-223" style="edgeStyle=orthogonalEdgeStyle;shape=connector;rounded=0;orthogonalLoop=1;jettySize=auto;html=1;entryX=0;entryY=0.5;entryDx=0;entryDy=0;entryPerimeter=0;strokeColor=default;strokeWidth=2;align=center;verticalAlign=middle;fontFamily=Helvetica;fontSize=11;fontColor=default;labelBackgroundColor=default;endArrow=none;endFill=0;" parent="1" source="zYjV9tUaryt6FU55qQ4A-124" target="zYjV9tUaryt6FU55qQ4A-98" edge="1">
          <mxGeometry relative="1" as="geometry" />
        </mxCell>
        <mxCell id="zYjV9tUaryt6FU55qQ4A-231" value="10.0.0.12" style="text;html=1;align=center;verticalAlign=middle;whiteSpace=wrap;rounded=0;fontFamily=Helvetica;fontSize=11;fontColor=default;labelBackgroundColor=none;" parent="1" vertex="1">
          <mxGeometry x="4000" y="-671" width="100" height="20" as="geometry" />
        </mxCell>
        <mxCell id="zYjV9tUaryt6FU55qQ4A-232" value="10.0.0.13" style="text;html=1;align=center;verticalAlign=middle;whiteSpace=wrap;rounded=0;fontFamily=Helvetica;fontSize=11;fontColor=default;labelBackgroundColor=none;" parent="1" vertex="1">
          <mxGeometry x="4000" y="-611" width="100" height="20" as="geometry" />
        </mxCell>
        <mxCell id="zYjV9tUaryt6FU55qQ4A-233" value="10.0.0.14" style="text;html=1;align=center;verticalAlign=middle;whiteSpace=wrap;rounded=0;fontFamily=Helvetica;fontSize=11;fontColor=default;labelBackgroundColor=none;" parent="1" vertex="1">
          <mxGeometry x="4000" y="-395" width="100" height="20" as="geometry" />
        </mxCell>
        <mxCell id="zYjV9tUaryt6FU55qQ4A-234" value="10.0.0.15" style="text;html=1;align=center;verticalAlign=middle;whiteSpace=wrap;rounded=0;fontFamily=Helvetica;fontSize=11;fontColor=default;labelBackgroundColor=none;" parent="1" vertex="1">
          <mxGeometry x="4000" y="-335" width="100" height="20" as="geometry" />
        </mxCell>
        <mxCell id="zYjV9tUaryt6FU55qQ4A-235" value="10.0.0.16" style="text;html=1;align=center;verticalAlign=middle;whiteSpace=wrap;rounded=0;fontFamily=Helvetica;fontSize=11;fontColor=default;labelBackgroundColor=none;" parent="1" vertex="1">
          <mxGeometry x="4000" y="-210" width="100" height="20" as="geometry" />
        </mxCell>
        <mxCell id="zYjV9tUaryt6FU55qQ4A-236" value="10.0.0.17" style="text;html=1;align=center;verticalAlign=middle;whiteSpace=wrap;rounded=0;fontFamily=Helvetica;fontSize=11;fontColor=default;labelBackgroundColor=none;" parent="1" vertex="1">
          <mxGeometry x="4000" y="-150" width="100" height="20" as="geometry" />
        </mxCell>
        <mxCell id="zYjV9tUaryt6FU55qQ4A-237" value="10.0.0.18/16" style="text;html=1;align=center;verticalAlign=middle;whiteSpace=wrap;rounded=0;fontFamily=Helvetica;fontSize=11;fontColor=default;labelBackgroundColor=none;" parent="1" vertex="1">
          <mxGeometry x="4000" y="-20" width="100" height="20" as="geometry" />
        </mxCell>
        <mxCell id="zYjV9tUaryt6FU55qQ4A-238" value="10.0.0.19/16" style="text;html=1;align=center;verticalAlign=middle;whiteSpace=wrap;rounded=0;fontFamily=Helvetica;fontSize=11;fontColor=default;labelBackgroundColor=none;" parent="1" vertex="1">
          <mxGeometry x="4000" y="40" width="100" height="20" as="geometry" />
        </mxCell>
        <mxCell id="zYjV9tUaryt6FU55qQ4A-239" value="10.0.0.11/16" style="text;html=1;align=center;verticalAlign=middle;whiteSpace=wrap;rounded=0;fontFamily=Helvetica;fontSize=11;fontColor=default;labelBackgroundColor=none;" parent="1" vertex="1">
          <mxGeometry x="4200" y="-272" width="100" height="20" as="geometry" />
        </mxCell>
        <mxCell id="zYjV9tUaryt6FU55qQ4A-240" value="10.0.0.10/16" style="text;html=1;align=center;verticalAlign=middle;whiteSpace=wrap;rounded=0;fontFamily=Helvetica;fontSize=11;fontColor=default;labelBackgroundColor=none;" parent="1" vertex="1">
          <mxGeometry x="4240" y="-410" width="100" height="20" as="geometry" />
        </mxCell>
        <mxCell id="zYjV9tUaryt6FU55qQ4A-241" value="" style="fontColor=#0066CC;verticalAlign=top;verticalLabelPosition=bottom;labelPosition=center;align=center;html=1;outlineConnect=0;fillColor=#CCCCCC;strokeColor=#6881B3;gradientColor=none;gradientDirection=north;strokeWidth=2;shape=mxgraph.networks.router;" parent="1" vertex="1">
          <mxGeometry x="4240" y="-390" width="100" height="30" as="geometry" />
        </mxCell>
        <mxCell id="zYjV9tUaryt6FU55qQ4A-243" value="10.1.0.11" style="text;html=1;align=center;verticalAlign=middle;whiteSpace=wrap;rounded=0;fontFamily=Helvetica;fontSize=11;fontColor=default;labelBackgroundColor=none;" parent="1" vertex="1">
          <mxGeometry x="3840" y="-590" width="100" height="20" as="geometry" />
        </mxCell>
        <mxCell id="zYjV9tUaryt6FU55qQ4A-244" value="10.1.0.10" style="text;html=1;align=center;verticalAlign=middle;whiteSpace=wrap;rounded=0;fontFamily=Helvetica;fontSize=11;fontColor=default;labelBackgroundColor=none;" parent="1" vertex="1">
          <mxGeometry x="3840" y="-740" width="100" height="20" as="geometry" />
        </mxCell>
        <mxCell id="zYjV9tUaryt6FU55qQ4A-245" value="10.2.0.11" style="text;html=1;align=center;verticalAlign=middle;whiteSpace=wrap;rounded=0;fontFamily=Helvetica;fontSize=11;fontColor=default;labelBackgroundColor=none;" parent="1" vertex="1">
          <mxGeometry x="3840" y="-315" width="100" height="20" as="geometry" />
        </mxCell>
        <mxCell id="zYjV9tUaryt6FU55qQ4A-246" value="10.2.0.10" style="text;html=1;align=center;verticalAlign=middle;whiteSpace=wrap;rounded=0;fontFamily=Helvetica;fontSize=11;fontColor=default;labelBackgroundColor=none;" parent="1" vertex="1">
          <mxGeometry x="3840" y="-465" width="100" height="20" as="geometry" />
        </mxCell>
        <mxCell id="zYjV9tUaryt6FU55qQ4A-247" value="10.3.0.11" style="text;html=1;align=center;verticalAlign=middle;whiteSpace=wrap;rounded=0;fontFamily=Helvetica;fontSize=11;fontColor=default;labelBackgroundColor=none;" parent="1" vertex="1">
          <mxGeometry x="3840" y="-130" width="100" height="20" as="geometry" />
        </mxCell>
        <mxCell id="zYjV9tUaryt6FU55qQ4A-248" value="10.3.0.10" style="text;html=1;align=center;verticalAlign=middle;whiteSpace=wrap;rounded=0;fontFamily=Helvetica;fontSize=11;fontColor=default;labelBackgroundColor=none;" parent="1" vertex="1">
          <mxGeometry x="3840" y="-280" width="100" height="20" as="geometry" />
        </mxCell>
        <mxCell id="zYjV9tUaryt6FU55qQ4A-249" value="10.4.0.11" style="text;html=1;align=center;verticalAlign=middle;whiteSpace=wrap;rounded=0;fontFamily=Helvetica;fontSize=11;fontColor=default;labelBackgroundColor=none;" parent="1" vertex="1">
          <mxGeometry x="3840" y="60" width="100" height="20" as="geometry" />
        </mxCell>
        <mxCell id="zYjV9tUaryt6FU55qQ4A-250" value="10.4.0.10" style="text;html=1;align=center;verticalAlign=middle;whiteSpace=wrap;rounded=0;fontFamily=Helvetica;fontSize=11;fontColor=default;labelBackgroundColor=none;" parent="1" vertex="1">
          <mxGeometry x="3840" y="-90" width="100" height="20" as="geometry" />
        </mxCell>
        <mxCell id="zYjV9tUaryt6FU55qQ4A-251" value="10.4.0.20" style="text;html=1;align=center;verticalAlign=middle;whiteSpace=wrap;rounded=0;fontFamily=Helvetica;fontSize=11;fontColor=default;labelBackgroundColor=none;" parent="1" vertex="1">
          <mxGeometry x="3720" y="10" width="100" height="20" as="geometry" />
        </mxCell>
        <mxCell id="zYjV9tUaryt6FU55qQ4A-252" value="10.3.0.20" style="text;html=1;align=center;verticalAlign=middle;whiteSpace=wrap;rounded=0;fontFamily=Helvetica;fontSize=11;fontColor=default;labelBackgroundColor=none;" parent="1" vertex="1">
          <mxGeometry x="3720" y="-180" width="100" height="20" as="geometry" />
        </mxCell>
        <mxCell id="zYjV9tUaryt6FU55qQ4A-253" value="10.2.0.20" style="text;html=1;align=center;verticalAlign=middle;whiteSpace=wrap;rounded=0;fontFamily=Helvetica;fontSize=11;fontColor=default;labelBackgroundColor=none;" parent="1" vertex="1">
          <mxGeometry x="3720" y="-370" width="100" height="20" as="geometry" />
        </mxCell>
        <mxCell id="zYjV9tUaryt6FU55qQ4A-254" value="10.1.0.20" style="text;html=1;align=center;verticalAlign=middle;whiteSpace=wrap;rounded=0;fontFamily=Helvetica;fontSize=11;fontColor=default;labelBackgroundColor=none;" parent="1" vertex="1">
          <mxGeometry x="3720" y="-640" width="100" height="20" as="geometry" />
        </mxCell>
        <mxCell id="zYjV9tUaryt6FU55qQ4A-256" value="EDN : 10.0.0.0/16" style="text;html=1;align=center;verticalAlign=middle;whiteSpace=wrap;rounded=0;fontFamily=Helvetica;fontSize=14;fontColor=default;labelBackgroundColor=default;" parent="1" vertex="1">
          <mxGeometry x="4090" y="-835" width="120" height="30" as="geometry" />
        </mxCell>
        <mxCell id="zYjV9tUaryt6FU55qQ4A-257" value="Paris : 10.1.0.0/16" style="text;html=1;align=center;verticalAlign=middle;whiteSpace=wrap;rounded=0;fontFamily=Helvetica;fontSize=14;fontColor=default;labelBackgroundColor=default;" parent="1" vertex="1">
          <mxGeometry x="3680" y="-835" width="120" height="30" as="geometry" />
        </mxCell>
        <mxCell id="zYjV9tUaryt6FU55qQ4A-258" value="Marseille : 10.2.0.0/16" style="text;html=1;align=center;verticalAlign=middle;whiteSpace=wrap;rounded=0;fontFamily=Helvetica;fontSize=14;fontColor=default;labelBackgroundColor=default;" parent="1" vertex="1">
          <mxGeometry x="3680" y="-470" width="150" height="30" as="geometry" />
        </mxCell>
        <mxCell id="zYjV9tUaryt6FU55qQ4A-259" value="Lyon : 10.3.0.0/16" style="text;html=1;align=center;verticalAlign=middle;whiteSpace=wrap;rounded=0;fontFamily=Helvetica;fontSize=14;fontColor=default;labelBackgroundColor=default;" parent="1" vertex="1">
          <mxGeometry x="3680" y="-285" width="150" height="30" as="geometry" />
        </mxCell>
        <mxCell id="zYjV9tUaryt6FU55qQ4A-260" value="Lille : 10.4.0.0/16" style="text;html=1;align=center;verticalAlign=middle;whiteSpace=wrap;rounded=0;fontFamily=Helvetica;fontSize=14;fontColor=default;labelBackgroundColor=default;" parent="1" vertex="1">
          <mxGeometry x="3680" y="-95" width="150" height="30" as="geometry" />
        </mxCell>
      </root>
    </mxGraphModel>
  </diagram>
</mxfile>
